<?xml version="1.0" encoding="utf-8"?>
<svg width="480px" height="480px" viewBox="0 0 480 480" version="1.1" xmlns:xlink="http://www.w3.org/1999/xlink" xmlns="http://www.w3.org/2000/svg">
  <defs>
    <path d="M0 0L480 0L480 480L0 480L0 0Z" id="path_1" />
    <clipPath id="mask_1">
      <use xlink:href="#path_1" />
    </clipPath>
  </defs>
  <g id="htme">
    <path d="M0 0L480 0L480 480L0 480L0 0Z" id="Background" fill="#FFFFFF" fill-opacity="0" fill-rule="evenodd" stroke="none" />
    <path d="M236.97 375.6L248.77 375.6C257.17 375.6 265.08 371.68 270.16 364.99L345.01 266.52L419.86 364.99C424.94 371.67 432.85 375.6 441.25 375.6L453.05 375.6L357.56 250L448.77 130L436.97 130C428.57 130 420.66 133.92 415.58 140.61L345 233.47L274.41 140.6C269.33 133.92 261.42 130 253.02 130L241.22 130L332.43 250L236.97 375.6ZM240 260L240 230C240 163.25 180.55 110.39 111.71 121.48C58.12 130.11 20 178.57 20 232.84L20 240L20 260L20 261.42C20 326.95 67.77 379.28 128.68 380C179.6 380.6 222.57 346.56 235.75 300.01L225.47 300.01C219.27 300.01 213.65 303.56 210.96 309.14C193.57 345.09 153.07 367.76 108.68 357.56C67.76 348.15 40 309.81 40 267.83L40 260L240 260ZM40 237.1C40 190.02 68.04 151.53 109.24 142.32C167.98 129.2 220 173.52 220 230L220 240L40 240L40 237.1Z" id="Group" fill="#FFFFFF" stroke="none" />
  </g>
</svg>