<?xml version="1.0" encoding="utf-8"?>
<svg width="800px" height="800.4334px" viewBox="0 0 800 800.4334" version="1.1" xmlns:xlink="http://www.w3.org/1999/xlink" xmlns="http://www.w3.org/2000/svg">
  <defs>
    <path d="M0 0L800 0L800 800L0 800L0 0Z" id="path_1" />
    <clipPath id="mask_1">
      <use xlink:href="#path_1" />
    </clipPath>
  </defs>
  <g id="htmm">
    <path d="M0 0L800 0L800 800L0 800L0 0Z" id="Background" fill="#FFFFFF" fill-opacity="0" fill-rule="evenodd" stroke="none" />
    <path d="M417.067 800.433C415.219 800.43 413.384 800.126 411.633 799.533L391.667 792.667C384.823 790.309 380.285 783.803 380.433 776.567C380.433 776.033 381.333 728 370.833 698.4C341.573 674.82 315.539 647.497 293.4 617.133C282.439 602.198 272.462 586.565 263.533 570.333C230.022 509.977 213.936 441.498 217.067 372.534C223 243.767 274.6 126.8 358.567 51.7001C372.067 39.6001 379.1 28.1001 381.367 14.4667C382.622 6.75979 389.07 0.963829 396.867 0.533404C405.2 -0.599929 411.7 5.1334 413.867 12.6334C417.633 26.0334 424.567 40.6334 432.867 52.6334C435.7 58.0334 442.9 65.7667 449.267 72.5334C480.533 105.867 545.567 175.267 576.767 317.133C607.8 504 521.367 619.4 467.1 671.667C455.133 683.333 445.767 690.633 441.2 694.1C438.215 697.816 436.076 702.139 434.933 706.767C430.7 726.3 432.567 768.133 433.667 782.6C434.06 788.182 431.648 793.594 427.233 797.033C424.3 799.234 420.734 800.426 417.067 800.433L417.067 800.433ZM397.433 58.6667C392.479 65.1146 386.92 71.0749 380.833 76.4666C303.467 145.633 255.933 254.1 250.367 374.067C247.559 436.914 262.249 499.307 292.8 554.3C300.9 569.033 310.167 583.567 320.3 597.4C352.8 641.667 385.467 667.767 394.7 674.733C397.083 676.503 398.938 678.889 400.067 681.633C401.6 685.267 402.967 689.167 404.167 693.2C406.7 685.7 410.8 678.533 416.567 671.467C417.463 670.365 418.493 669.38 419.633 668.533C422.733 666.3 431.833 659.5 442.767 649.2C493.533 599.9 572.433 494.367 544.067 323.433C514.967 191.367 456.4 128.9 424.967 95.3C414.367 84 407.367 76.5333 403.933 68.8667C401.619 65.5632 399.45 62.16 397.433 58.6667L397.433 58.6667Z" id="Shape" fill="#FFFFFF" fill-rule="evenodd" stroke="none" />
  </g>
</svg>