<?xml version="1.0" encoding="utf-8"?>
<svg width="700px" height="700px" viewBox="0 0 700 700" version="1.1" xmlns:xlink="http://www.w3.org/1999/xlink" xmlns="http://www.w3.org/2000/svg">
  <defs>
    <path d="M0 0L700 0L700 700L0 700L0 0Z" id="path_1" />
    <clipPath id="mask_1">
      <use xlink:href="#path_1" />
    </clipPath>
  </defs>
  <g id="htmp">
    <path d="M0 0L700 0L700 700L0 700L0 0Z" id="Background" fill="#FFFFFF" fill-opacity="0" fill-rule="evenodd" stroke="none" />
    <path d="M584.959 408.209C579.709 402.128 570.741 403.79 563.806 405.169C547.137 408.144 529.003 411.6 512.859 404.665C541.691 359.165 564.375 309.487 577.063 257.053C581.678 237.125 585.244 216.737 584.566 196.219C584.062 184.734 582.466 172.506 575.444 162.99C557.822 139.999 533.111 123.461 505.137 115.937C470.466 106.531 433.278 109.331 399.175 119.875C396.353 120.444 393.575 119.175 390.819 118.825C359.866 112.547 325.741 115.019 298.9 132.934C266.678 121.341 232.05 114.341 197.75 117.928C172.244 120.575 146.628 132.431 131.994 154.153C113.487 181.256 110.972 215.862 113.925 247.625C119.875 289.8 130.156 331.319 143.237 371.809C151.856 397.053 161.35 422.494 176.684 444.544C184.472 455.372 194.819 466.287 208.753 467.994C221.134 469.503 232.334 461.825 239.925 452.725C253.05 437.019 266.547 421.597 280.547 406.678C289.691 411.162 299.622 413.744 309.772 414.509C304.281 421.028 299.753 429.537 291.003 432.097C279.212 436.647 265.409 436.034 255.019 443.887C249.025 448.175 248.741 457.516 254.122 462.437C263.856 471.887 278.206 473.922 291.156 475.016C309.656 476.349 327.932 470.31 341.994 458.216C341.906 487.397 342.037 516.666 345.319 545.694C346.959 562.691 354.287 579.622 367.216 591.062C379.4 601.694 396.769 603.903 412.234 601.212C427.416 598.325 443.012 593.775 454.869 583.406C467.469 572.294 472.85 555.516 475.344 539.416C479.712 510.56 483.461 481.614 486.587 452.598C519.028 458.062 555.734 451.85 579.972 428.159C585.156 423.281 590.078 414.837 584.959 408.209L584.959 408.209ZM512.969 133.809C532.438 141.203 549.741 154.044 562.734 170.297C568.925 178.062 569.713 188.497 570.106 198.034C570.391 220.784 565.797 243.25 559.956 265.125C548.61 305.611 531.973 344.424 510.475 380.559C508.387 384.125 506.071 387.552 503.541 390.818C503.278 389.491 503.016 388.164 502.757 386.836C505.4 379.859 509.272 373.297 510.781 365.903C516.119 345.056 511.613 323.597 509.688 302.619C507.675 282.822 514.434 263.55 514.259 243.797C515.025 234.128 511.197 224.984 507.478 216.3C494.025 186.222 472.631 159.469 445.178 141.094C438.484 136.5 431.003 133.284 424.331 128.669C453.513 122.412 484.816 123.2 512.947 133.787L512.969 133.809ZM495.184 302.662C496.891 326.09 503.694 351.247 492.647 373.472C477.837 344.006 458.697 315.875 452.025 283.062C450.144 272.628 449.663 259.416 458.938 252.153C470.706 243.797 486.084 245.678 499.691 246.509C499.1 265.3 493.325 283.74 495.206 302.662L495.184 302.662ZM230.431 441.459C225.116 447.716 217.941 455.175 208.884 453.316C198.297 450.253 191.559 440.584 185.653 431.9C169.706 406.394 160.103 377.584 151.287 348.994C141.422 315.153 133.109 280.766 128.319 245.809C125.934 219.209 127.422 190.684 141.028 166.994C151.222 149.056 170.231 137.616 190.203 133.875C222.184 127.728 254.975 134.247 285.666 143.609C272.013 158.441 261.704 176.031 255.434 195.191C246.874 220.873 243.412 247.981 245.241 274.991C246.4 293.956 245.897 313.009 243.25 331.822C239.925 356.387 249.791 381.653 268.034 398.234C255.609 412.759 242.441 426.606 230.409 441.481L230.431 441.459ZM258.431 353.456C255.303 339.544 259.394 325.544 259.853 311.609C260.925 295.837 259.809 280.044 259.503 264.272C274.247 254.734 291.484 247.275 309.356 248.303C318.817 248.715 326.918 255.213 329.372 264.359C337.487 296.669 340.003 332.631 324.45 363.234C319.103 375.064 314.557 387.239 310.844 399.678C284.987 399.941 263.003 378.087 258.431 353.478L258.431 353.456ZM338.887 439.95C322.656 461.934 290.172 466.134 266.7 454.169C278.272 448.809 291.812 449.225 302.991 442.619C313.797 436.8 318.084 424.003 328.191 417.419C339.194 415.866 347.222 432.206 338.909 439.928L338.887 439.95ZM478.1 414.269C471.931 424.2 474.097 436.319 472.587 447.344C469.044 478.253 465.566 509.206 460.534 539.919C458.15 554.641 451.894 570.281 438.003 577.609C423.762 584.85 407.225 589.4 391.212 586.928C376.009 584.259 366.428 570.084 362.119 556.281C358.969 544.709 358.641 532.612 357.744 520.69C356.337 491.917 356.067 463.1 356.934 434.307C357.569 423.062 351.794 411.359 341.753 405.89C336.897 403.156 331.209 402.784 325.784 402.347C330.05 381.194 342.934 362.928 347.353 341.797C353.084 315.656 349.912 288.444 344.05 262.631C341.184 249.747 331.384 238.35 318.347 235.222C298.266 230.169 278.009 238.022 260.05 246.422C262.325 217.241 270.134 187.359 288.006 163.669C301.383 145.959 321.303 134.352 343.306 131.447C379.225 126.875 416.937 136.762 445.484 159.228C469.323 177.956 487.429 202.996 497.744 231.503C481.053 230.912 462.131 230.234 448.634 241.828C436.384 252.153 434.809 269.762 437.566 284.55C443.953 319.725 464.712 349.628 480.025 381.259C484.094 388.675 489.562 395.15 494.769 401.8C488.578 404.928 481.666 407.925 478.144 414.29L478.1 414.269ZM521.063 439.14C510.038 440.453 498.575 440.847 487.944 437.194C487.988 431.178 487.659 424.047 492.494 419.562C496.322 416.741 501.769 414.137 506.188 417.222C525 427.131 546.875 422.297 566.891 419.869C554.663 431.769 537.731 437.325 521.063 439.14L521.063 439.14ZM463.269 258.331C459.353 262.992 463.575 269.966 466.944 272.154C475.103 279.096 486.281 269.396 486.544 255.89C479.172 250.913 469.919 251.42 463.247 258.331L463.269 258.331ZM318.85 275.145C322.328 272.695 326.003 265.972 321.978 261.916C316.247 256.119 307.912 255.003 300.934 257.344C298.681 258.323 296.319 260.229 296.778 263.658C298.397 275.308 310.931 282.385 318.828 275.145L318.85 275.145Z" id="Shape" fill="#FFFFFF" fill-rule="evenodd" stroke="none" />
  </g>
</svg>